<?xml version="1.0" encoding="utf-8"?>
<!-- Generator: Adobe Illustrator 25.0.0, SVG Export Plug-In . SVG Version: 6.00 Build 0)  -->
<svg version="1.1" id="Camada_1" xmlns="http://www.w3.org/2000/svg" xmlns:xlink="http://www.w3.org/1999/xlink" x="0px" y="0px"
	 viewBox="0 0 40 40" style="enable-background:new 0 0 40 40;" xml:space="preserve">
<style type="text/css">
	.st0{fill:transparent;stroke:#E62E2C;stroke-width:3;stroke-miterlimit:10;}
	.st1{fill:none;stroke:#E62E2C;stroke-width:3;stroke-miterlimit:10;}
	.st2{fill:#FFFFFF;}
	.st3{fill:#E62E2C;}
</style>
<circle class="st0" cx="20" cy="20" r="18.34"/>
<line class="st1" x1="1.18" y1="20" x2="37.86" y2="20"/>
<g>
	<path class="st2" d="M20,24.21c-2.32,0-4.21-1.89-4.21-4.21s1.89-4.21,4.21-4.21s4.21,1.89,4.21,4.21S22.32,24.21,20,24.21z"/>
	<path class="st3" d="M20,16.79c1.77,0,3.21,1.44,3.21,3.21s-1.44,3.21-3.21,3.21s-3.21-1.44-3.21-3.21S18.23,16.79,20,16.79
		 M20,14.79c-2.87,0-5.21,2.34-5.21,5.21s2.34,5.21,5.21,5.21s5.21-2.34,5.21-5.21S22.87,14.79,20,14.79L20,14.79z"/>
</g>
</svg>
