<?xml version="1.0" encoding="utf-8"?>
<!-- Generator: Adobe Illustrator 25.0.0, SVG Export Plug-In . SVG Version: 6.00 Build 0)  -->
<svg version="1.1" id="Camada_1" xmlns="http://www.w3.org/2000/svg" xmlns:xlink="http://www.w3.org/1999/xlink" x="0px" y="0px"
	 viewBox="0 0 2000 170" style="enable-background:new 0 0 2000 170;" xml:space="preserve">
<style type="text/css">
	.st1{fill:#ff4040;}
</style>
<g>
	<path class="st1" d="M1826.2,147.36c-15.71,0-28.5-12.79-28.5-28.5v-11.71c0-11.86-9.64-21.5-21.5-21.5H226.12
		c-11.86,0-21.5,9.64-21.5,21.5v11.71c0,15.71-12.79,28.5-28.5,28.5H-3.5V-3.5h2007v150.86H1826.2z"/>
	<path d="M2000,0v143.86h-173.8c-13.81,0-25-11.19-25-25v-11.71c0-13.81-11.19-25-25-25H226.12c-13.81,0-25,11.19-25,25v11.71
		c0,13.81-11.19,25-25,25H0V0H2000 M2007-7h-7H0h-7v7v143.86v7h7h176.12c17.64,0,32-14.36,32-32v-11.71c0-9.93,8.07-18,18-18H1776.2
		c9.93,0,18,8.07,18,18v11.71c0,17.64,14.36,32,32,32H2000h7v-7V0V-7L2007-7z"/>
</g>
</svg>
